# xmcd
#
# Track frame offsets: 
#        150
#        44584
#        63731
#        99565
#        137886
#        157700
#        203024
#        227345
#
# Disc length: 3406 seconds
#
# Revision: 1
# Processed by: cddbd v1.5.2PL0 Copyright (c) Steve Scherf et al.
# Submitted via: ExactAudioCopy v0.99pb3
#
DISCID=650d4c08
DTITLE=Greg Malcolm and Tetuzi Akiyama - Six Strings
DYEAR=2007
DGENRE=Instrumental
TTITLE0=So we go
TTITLE1=Life on it's way
TTITLE2=Strangers
TTITLE3=Nijmegen duck
TTITLE4=Scenic tunnel
TTITLE5=Leaving home
TTITLE6=Comes and goes
TTITLE7=Last dance
EXTD=YEAR: 2007
EXTT0=
EXTT1=
EXTT2=
EXTT3=
EXTT4=
EXTT5=
EXTT6=
EXTT7=
PLAYORDER=
